<?xml version="1.0" standalone="no"?>
<!DOCTYPE svg PUBLIC "-//W3C//DTD SVG 1.1//EN" "http://www.w3.org/Graphics/SVG/1.1/DTD/svg11.dtd" >
<svg xmlns="http://www.w3.org/2000/svg">
<metadata>
This is a custom SVG webfont generated by Font Squirrel.
Copyright   :  2007 by P22 type foundry All rights reserved
Designer    : Edward Johnston Richard Kegler Paul Hunt
Foundry URL : httpwwwp22com
</metadata>
<defs>
<font id="P22UndergroundProThin" horiz-adv-x="1228" >
<font-face units-per-em="2048" ascent="1536" descent="-512" />
<missing-glyph horiz-adv-x="532" />
<glyph unicode=" "  horiz-adv-x="532" />
<glyph unicode="&#x09;" horiz-adv-x="532" />
<glyph unicode="&#xa0;" horiz-adv-x="532" />
<glyph unicode="!" horiz-adv-x="614" d="M246 20v21l51 51h20l52 -51v-21l-52 -51h-20zM287 358v830v235l10 11h20l11 -11v-235v-830l-11 -10h-20z" />
<glyph unicode="&#x22;" horiz-adv-x="983" d="M287 952v277v194l10 11h20l11 -11v-194v-277l-11 -10h-20zM655 952v277v194l11 11h20l10 -11v-194v-277l-10 -10h-20z" />
<glyph unicode="#" horiz-adv-x="1310" d="M123 532v21l10 10h270l31 369h-280l-11 10v21l11 10h284l33 368l10 11h21l10 -11l-33 -368h389l33 368l10 11h21l10 -11l-33 -368h269l10 -10v-21l-10 -10h-273l-31 -369h283l10 -10v-21l-10 -10h-287l-41 -430l-10 -10h-20l-11 10l41 430h-389l-41 -430l-10 -10h-20 l-11 10l41 430h-266zM444 563h390l30 369h-389z" />
<glyph unicode="$" horiz-adv-x="1146" d="M154 266l20 10h21q39 -109 138 -183.5t220 -82.5v768q-150 70 -239 155t-89 204q0 133 92.5 226t235.5 101v164l10 10h21l10 -10v-164q215 -25 328 -215l-21 -10h-20q-100 168 -287 184v-614q90 -43 141 -71.5t124 -82t109 -120t36 -146.5q0 -180 -130.5 -300 t-279.5 -120v-164l-10 -10h-21l-10 10v164q-290 27 -399 297zM270 1137q0 -104 74 -172t209 -136v594q-115 -8 -199 -84.5t-84 -201.5zM594 10q131 0 247.5 104.5t116.5 274.5q0 55 -24.5 106.5t-57 86t-89 71.5t-94.5 56.5l-99 48.5v-748z" />
<glyph unicode="%" horiz-adv-x="1720" d="M123 1116q0 137 99.5 232.5t238.5 95.5t238.5 -95.5t99.5 -232.5t-99.5 -232.5t-238.5 -95.5t-238.5 95.5t-99.5 232.5zM168 1116q0 -123 85 -205t208 -82t208 82t85 205t-85 205t-208 82t-208 -82t-85 -205zM360 10l943 1413l20 11h20l11 -11l-942 -1413l-21 -10h-20z M922 317.5q0 137.5 99 232.5t238.5 95t238.5 -95t99 -232.5t-99 -232.5t-238.5 -95t-238.5 95t-99 232.5zM967 317.5q0 -122.5 85 -204.5t207.5 -82t207.5 82t85 204.5t-85 204.5t-207.5 82t-207.5 -82t-85 -204.5z" />
<glyph unicode="&#x26;" horiz-adv-x="1433" d="M123 373q0 39 10 75.5t38 75.5l46 64q18 25 68 64l64 53q15 12 75.5 56t67.5 48q-4 4 -36 41l-48 56q-16 19 -46 59.5t-44.5 70t-28 68.5t-13.5 74q0 119 81 202.5t196 83.5t195.5 -84t80.5 -202q0 -154 -276 -369q266 -307 420 -461q115 160 256 420h33l8 -10 q-139 -256 -266 -441q121 -121 327 -305l-10 -12h-41q-190 168 -303 287q-231 -317 -465 -318q-162 0 -275.5 118t-113.5 286zM168 373q0 -150 100.5 -256.5t243.5 -106.5q211 0 434 307q-252 264 -424 461q-12 -8 -66.5 -47t-72.5 -54l-63 -51q-44 -36 -63 -59.5t-44 -57.5 t-35 -67.5t-10 -68.5zM322 1178q0 -47 27.5 -104.5t54 -93.5t71.5 -87t47 -53q51 37 102.5 82t105.5 119.5t54 136.5q0 102 -67.5 173.5t-161.5 71.5q-96 0 -164.5 -71.5t-68.5 -173.5z" />
<glyph unicode="'" horiz-adv-x="614" d="M287 952v277v194l10 11h20l11 -11v-194v-277l-11 -10h-20z" />
<glyph unicode="(" horiz-adv-x="696" d="M205 471q0 324 73.5 581t172.5 423h30l11 -11q-98 -152 -170 -414t-72 -579t71.5 -579.5t170.5 -413.5l-11 -10h-30q-98 166 -172 422.5t-74 580.5z" />
<glyph unicode=")" horiz-adv-x="696" d="M205 -522q98 152 169.5 414t71.5 579t-71.5 579.5t-169.5 413.5l10 11h31q98 -166 172 -423t74 -581t-74 -581t-172 -422h-31z" />
<glyph unicode="*" horiz-adv-x="983" d="M160 901v10l291 154l-291 154v10l14 26h10l287 -159v327l10 11h21l10 -11v-327l287 159h10l14 -26v-10l-291 -154l291 -154v-10l-14 -27h-10l-287 160v-327l-10 -11h-21l-10 11v327l-287 -160h-10z" />
<glyph unicode="+" horiz-adv-x="1146" d="M174 737v21l10 10h369v369l10 10h21l10 -10v-369h369l10 -10v-21l-10 -10h-369v-369l-10 -10h-21l-10 10v369h-369z" />
<glyph unicode="," horiz-adv-x="614" d="M195 -195q92 0 92 164v103l10 10h20l11 -10v-92q0 -195 -92 -195q-20 0 -41 10v10z" />
<glyph unicode="-" horiz-adv-x="819" d="M82 471v21l10 10h635l10 -10v-21l-10 -10h-635z" />
<glyph unicode="." horiz-adv-x="614" d="M266 10v62l10 10h62l10 -10v-62l-10 -10h-62z" />
<glyph unicode="/" horiz-adv-x="573" d="M61 -502l410 1925l10 11h25l10 -11l-410 -1925l-10 -10h-24z" />
<glyph unicode="0" horiz-adv-x="1187" d="M164 716.5q0 319.5 117.5 533.5t312 214t312.5 -214t118 -533.5t-118 -533.5t-312.5 -214t-312 214t-117.5 533.5zM209 717q0 -301 108.5 -504t276.5 -203t276.5 203t108.5 504t-108.5 503.5t-276.5 202.5t-276.5 -202.5t-108.5 -503.5z" />
<glyph unicode="1" horiz-adv-x="450" d="M205 10v1393l10 20l21 21l10 -10v-1424l-10 -10h-21z" />
<glyph unicode="2" horiz-adv-x="1064" d="M143 1249v41q166 174 328 174t255 -99t93 -269q0 -150 -194 -461l-369 -594h594l10 -10v-21l-10 -10h-655l-11 10l410 656q180 279 180 430q0 154 -82 240.5t-221 86.5q-170 0 -317 -184z" />
<glyph unicode="3" horiz-adv-x="1105" d="M82 195l20 20h21q68 -96 171 -150.5t208 -54.5q172 0 294 123t122 297q0 162 -116 265.5t-300 103.5q-51 0 -103 -21l-10 10l399 605h-655l-10 10v20l10 11h717l10 -11l-379 -583q15 1 29 0q199 0 321 -107q131 -115 132 -303q0 -190 -135.5 -325.5t-325.5 -135.5 q-254 1 -420 226z" />
<glyph unicode="4" horiz-adv-x="1331" d="M61 502l809 942l11 -10v-902h297l10 -10v-20l-10 -10h-297v-482l-11 -10h-20l-10 10v482h-768zM143 532h697v809z" />
<glyph unicode="5" horiz-adv-x="1085" d="M82 174l20 21h21q66 -88 164 -136.5t194 -48.5q182 0 311.5 123t129.5 297q0 178 -130 299t-321 121q-113 0 -244 -41l-10 10l59 604l11 11h686l10 -11l-20 -30h-646l-59 -533q111 36 212 36q151 0 280 -81q213 -135 213 -385q0 -199 -139.5 -330t-342.5 -131 q-241 0 -399 205z" />
<glyph unicode="6" horiz-adv-x="1146" d="M123 553q0 252 150.5 511t320.5 370h41l10 -11q-162 -113 -297 -322.5t-170 -424.5q184 195 416 194q197 0 323.5 -131t126.5 -319.5t-126.5 -319.5t-323.5 -131q-92 0 -174 34t-149.5 101.5t-107.5 183t-40 265.5zM168 553q0 -266 125 -404.5t301 -138.5 q168 0 286.5 120t118.5 290t-118.5 289.5t-286.5 119.5q-221 0 -424 -215q-2 -20 -2 -61z" />
<glyph unicode="7" horiz-adv-x="1146" d="M225 10l727 1383h-716l-11 10v20l11 11h768l10 -11l-738 -1413l-20 -10h-20z" />
<glyph unicode="8" horiz-adv-x="1105" d="M143 379q0 131 105.5 246.5t253.5 167.5q-121 61 -193.5 152t-72.5 202q0 131 93 224t224 93t224 -93t93 -224q0 -111 -72.5 -202t-193.5 -152q147 -51 253 -167t106 -247q0 -180 -119 -295t-291 -115t-291 115t-119 295zM188 379q0 -160 104.5 -264.5t260.5 -104.5 t260.5 104.5t104.5 264.5q0 125 -105.5 232.5t-259.5 156.5q-154 -49 -259.5 -156.5t-105.5 -232.5zM281 1147q0 -100 74.5 -191.5t197.5 -136.5q123 45 197.5 136.5t74.5 191.5q0 115 -78.5 195.5t-193.5 80.5t-193.5 -80.5t-78.5 -195.5z" />
<glyph unicode="9" horiz-adv-x="1146" d="M102 1013.5q0 188.5 127 319.5t324 131q92 0 174 -33.5t149.5 -101t107.5 -183.5t40 -265q0 -252 -150.5 -511t-320.5 -370h-41l-10 10q162 113 297 323t170 425q-184 -195 -416 -195q-197 0 -324 131t-127 319.5zM147 1014q0 -170 119 -290t287 -120q221 0 424 215 q2 20 2 62q0 266 -125 404t-301 138q-168 0 -287 -119.5t-119 -289.5z" />
<glyph unicode=":" horiz-adv-x="614" d="M266 10v62l10 10h62l10 -10v-62l-10 -10h-62zM266 666v61l10 10h62l10 -10v-61l-10 -11h-62z" />
<glyph unicode=";" horiz-adv-x="614" d="M195 -195q92 0 92 164v103l10 10h20l11 -10v-92q0 -195 -92 -195q-20 0 -41 10v10zM266 666v61l10 10h62l10 -10v-61l-10 -11h-62z" />
<glyph unicode="&#x3c;" horiz-adv-x="1146" d="M154 737v21l10 10l799 287l10 -11v-20l-10 -10l-738 -266l738 -267l10 -10v-20l-10 -11l-799 287z" />
<glyph unicode="=" horiz-adv-x="1146" d="M215 532v21l10 10h779l10 -10v-21l-10 -10h-779zM215 942v21l10 10h779l10 -10v-21l-10 -10h-779z" />
<glyph unicode="&#x3e;" horiz-adv-x="1146" d="M174 451v20l10 10l738 267l-738 266l-10 10v20l10 11l799 -287l10 -10v-21l-10 -10l-799 -287z" />
<glyph unicode="?" horiz-adv-x="962" d="M82 1208q55 119 153.5 187.5t225.5 68.5q139 0 238.5 -99t99.5 -239q0 -74 -43 -145.5t-105 -127.5l-122 -111q-60 -54 -103 -114.5t-43 -115.5q0 -61 24.5 -98t73.5 -76l-30 -31q-113 78 -113 205q0 61 43 124.5t103 119.5l122 111q61 56 104.5 124t43.5 135 q0 123 -86 210t-207 87q-217 0 -342 -231h-10zM389 20v21l51 51h21l51 -51v-21l-51 -51h-21z" />
<glyph unicode="@" horiz-adv-x="1802" d="M164 491.5q0 317.5 217 532.5t520 215q301 0 519 -208t218 -499q0 -193 -90 -326.5t-237 -133.5q-139 0 -195 116q-31 -39 -109.5 -72.5t-146.5 -33.5q-123 0 -199.5 64.5t-76.5 170.5q0 233 522 277q0 287 -209 287q-127 0 -242 -72l-10 10l21 41q111 61 235 62 q246 0 246 -332v-324q0 -78 50 -115.5t114 -37.5q127 0 204.5 119.5t77.5 299.5q0 276 -203.5 471t-488.5 195t-488.5 -208t-203.5 -498.5t203.5 -498.5t488.5 -208q213 0 369 113h10l18 -29q-174 -125 -397 -125q-303 0 -520 215t-217 532.5zM629 317q0 -90 64.5 -142 t166.5 -52q51 0 129 28.5t117 84.5v317q-80 -4 -158 -18.5t-152.5 -41t-120.5 -73t-46 -103.5z" />
<glyph unicode="A" horiz-adv-x="1310" d="M61 10l564 1413l10 11h41l10 -11l563 -1413l-10 -10h-20l-11 10l-198 492h-709l-199 -492l-10 -10h-20zM317 543h676l-338 850z" />
<glyph unicode="B" d="M205 10v1413l10 11h297q207 0 313.5 -92.5t106.5 -245.5q0 -104 -60.5 -181t-164.5 -116q193 -23 296 -130.5t103 -258.5q0 -182 -136 -296t-345 -114h-410zM246 41h379q193 0 314.5 103.5t121.5 265.5q0 160 -121 254t-315 94h-379v-717zM246 799h266q154 0 264.5 87 t110.5 210q0 127 -93.5 212t-281.5 85h-266v-594z" />
<glyph unicode="C" horiz-adv-x="1556" d="M143 717q0 307 222.5 527t535.5 220q279 0 492 -153v-41l-11 -10q-209 164 -481 163q-293 0 -503 -207.5t-210 -498.5t210 -499t503 -208q272 0 481 164l11 -10v-41q-213 -154 -492 -154q-313 0 -535.5 220.5t-222.5 527.5z" />
<glyph unicode="D" horiz-adv-x="1413" d="M205 10v1413l10 11h317q328 0 543 -207t215 -510t-215 -510t-543 -207h-317zM246 41h286q299 0 506 195.5t207 480t-207 480.5t-506 196h-286v-1352z" />
<glyph unicode="E" horiz-adv-x="1064" d="M205 10v1413l10 11h696l11 -11v-20l-11 -10h-665v-584h502l10 -10v-21l-10 -10h-502v-727h727l10 -10v-21l-10 -10h-758z" />
<glyph unicode="F" horiz-adv-x="983" d="M205 10v1413l10 11h696l11 -11v-20l-11 -10h-665v-584h502l10 -10v-21l-10 -10h-502v-758l-10 -10h-21z" />
<glyph unicode="G" horiz-adv-x="1638" d="M143 717q0 309 225.5 528t553.5 219q332 0 512 -133v-41l-11 -10q-182 143 -501 143q-307 0 -520.5 -206.5t-213.5 -499.5t218.5 -500t525.5 -207q125 0 258 40t223 108v528h-440l-10 10v21l10 10h471l10 -10v-584q-223 -164 -522 -164q-330 0 -559.5 216.5t-229.5 531.5 z" />
<glyph unicode="H" horiz-adv-x="1433" d="M205 10v1413l10 11h21l10 -11v-614h942v614l10 11h21l10 -11v-1413l-10 -10h-21l-10 10v758h-942v-758l-10 -10h-21z" />
<glyph unicode="I" horiz-adv-x="450" d="M205 10v1413l10 11h21l10 -11v-1413l-10 -10h-21z" />
<glyph unicode="J" horiz-adv-x="983" d="M82 240l31 16h10q37 -123 118 -184.5t179 -61.5q137 0 227 92.5t90 286.5v1034l11 11h20l10 -11v-1044q0 -195 -99 -302.5t-259 -107.5q-115 0 -208 69t-130 202z" />
<glyph unicode="K" horiz-adv-x="1105" d="M205 10v1413l10 11h21l10 -11v-563l676 563l20 11h31l10 -11l-727 -604l788 -809l-10 -10h-30l-21 10l-737 758v-758l-10 -10h-21z" />
<glyph unicode="L" horiz-adv-x="1024" d="M205 8v1417l8 9h25l8 -9v-1384h667l9 -10v-23l-9 -8h-700z" />
<glyph unicode="M" horiz-adv-x="1679" d="M205 10v1413l10 11h21l20 -11l584 -737l583 737l21 11h20l11 -11v-1413l-11 -10h-20l-10 10v1362l-584 -737h-21l-583 737v-1362l-10 -10h-21z" />
<glyph unicode="N" horiz-adv-x="1515" d="M205 10v1413l10 11h27l20 -11l1008 -1362v1362l10 11h20l11 -11v-1413l-11 -10h-24l-21 10l-1009 1362v-1362l-10 -10h-21z" />
<glyph unicode="O" horiz-adv-x="1802" d="M143 717q0 309 222.5 528t535.5 219t535.5 -219t222.5 -528t-222.5 -528.5t-535.5 -219.5t-535.5 219.5t-222.5 528.5zM188 717q0 -291 210 -499t503 -208t503 208t210 499t-210 498.5t-503 207.5t-503 -207.5t-210 -498.5z" />
<glyph unicode="P" horiz-adv-x="1105" d="M205 10v1413l8 11h279q256 0 384 -105.5t128 -294t-128 -294t-384 -105.5h-246v-625l-10 -10h-21zM246 676h246q225 0 345.5 91t120.5 267t-120.5 267.5t-345.5 91.5h-246v-717z" />
<glyph unicode="Q" horiz-adv-x="1802" d="M143 717q0 309 222.5 528t535.5 219t535.5 -219t222.5 -528q0 -295 -205 -512l205 -174v-11l-21 -20h-10l-205 176q-219 -207 -522 -207q-313 0 -535.5 219.5t-222.5 528.5zM188 717q0 -291 210 -499t503 -208q283 0 488 195l-191 164v10l21 20h10l190 -163 q195 201 195 481q0 291 -210 498.5t-503 207.5t-503 -207.5t-210 -498.5z" />
<glyph unicode="R" horiz-adv-x="1187" d="M205 10v1413l10 11h317q201 0 316 -96.5t115 -272.5q0 -156 -100.5 -245t-258.5 -120l522 -690l-10 -10h-31l-10 10l-522 686h-307v-686l-10 -10h-21zM246 737h246q170 0 298 80t128 248q0 158 -102.5 243t-283.5 85h-286v-656z" />
<glyph unicode="S" horiz-adv-x="1126" d="M113 266l20 10h21q45 -127 152.5 -196.5t236.5 -69.5q156 0 265.5 110.5t109.5 268.5q0 100 -76 180t-184 136l-215 109q-108 54 -183.5 136t-75.5 187q0 135 99.5 231t238.5 96q117 0 209 -58t150 -157l-21 -10h-20q-117 184 -318 184q-121 0 -207 -84t-86 -202 q0 -92 76 -166t183 -127l215 -110q108 -56 184 -144t76 -201q0 -174 -123 -297t-297 -123q-152 0 -263.5 79t-166.5 218z" />
<glyph unicode="T" horiz-adv-x="1269" d="M61 1403v20l11 11h1126l10 -11v-20l-10 -10h-543v-1383l-10 -10h-20l-11 10v1383h-542z" />
<glyph unicode="U" horiz-adv-x="1515" d="M205 635v788l10 11h21l10 -11v-788q0 -297 136 -461t375.5 -164t376 164t136.5 461v788l10 11h20l11 -11v-788q0 -315 -145.5 -490.5t-407.5 -175.5t-407.5 175.5t-145.5 490.5z" />
<glyph unicode="V" horiz-adv-x="1269" d="M61 1423l11 11h20l10 -11l533 -1382l532 1382l11 11h20l10 -11l-542 -1413l-11 -10h-41l-10 10z" />
<glyph unicode="W" horiz-adv-x="1925" d="M61 1423l11 11h20l10 -11l430 -1382l410 1362l10 10h21l10 -10l410 -1362l430 1382l10 11h20l11 -11l-441 -1413l-10 -10h-41l-10 10l-399 1321l-400 -1321l-10 -10h-41l-10 10z" />
<glyph unicode="X" horiz-adv-x="1351" d="M61 10l590 731l-549 682l11 11h20l21 -11l522 -649l522 649l21 11h20l10 -11l-549 -682l590 -731l-10 -10h-20l-21 10l-563 701l-563 -701l-21 -10h-20z" />
<glyph unicode="Y" d="M61 1423l11 11h20l21 -11l501 -635l504 635l19 11h20l10 -11l-532 -675v-738l-10 -10h-21l-10 10v738z" />
<glyph unicode="Z" d="M61 10l1004 1383h-932l-10 10v20l10 11h993l11 -11l-1004 -1382h1004l10 -12v-19l-10 -10h-1065z" />
<glyph unicode="[" horiz-adv-x="696" d="M205 -522v1986l10 11h348l10 -11v-20l-10 -10h-317v-1926h317l10 -10v-20l-10 -10h-348z" />
<glyph unicode="\" horiz-adv-x="573" d="M61 1423l11 11h24l10 -11l410 -1925l-10 -10h-25l-10 10z" />
<glyph unicode="]" horiz-adv-x="696" d="M123 -502l10 10h318v1926h-318l-10 10v20l10 11h348l11 -11v-1986l-11 -10h-348l-10 10v20z" />
<glyph unicode="^" horiz-adv-x="1146" d="M266 625l287 798l10 11h21l10 -11l287 -798l-11 -11h-20l-10 11l-267 737l-266 -737l-10 -11h-21z" />
<glyph unicode="_" horiz-adv-x="1024" d="M82 -195l10 11h840l10 -11v-20l-10 -10h-840l-10 10v20z" />
<glyph unicode="`" horiz-adv-x="1249" d="M369 1362l8 10h33l20 -10l297 -297l-10 -10h-21l-20 10z" />
<glyph unicode="a" horiz-adv-x="1064" d="M123 225q0 94 51 161t151.5 108t224.5 61t290 29q0 199 -89 283.5t-259 84.5q-123 0 -287 -82l-10 11l20 41q143 72 277 71q199 0 294 -100t95 -309v-574l-11 -10h-20l-10 10v103q-184 -143 -389 -144q-143 0 -235.5 68.5t-92.5 187.5zM168 225q0 -102 81 -158.5 t202 -56.5q102 0 208.5 44t180.5 110v379q-156 -8 -267.5 -25.5t-209 -52.5t-146.5 -94.5t-49 -145.5z" />
<glyph unicode="b" horiz-adv-x="1290" d="M205 10v1413l10 11h21l10 -11v-635q154 205 409 205q207 0 349.5 -148.5t142.5 -363.5t-142.5 -363.5t-349.5 -148.5q-256 0 -409 205v-164l-10 -10h-21zM246 246q61 -109 170.5 -172.5t238.5 -63.5q186 0 316.5 136.5t130.5 335t-130 334.5t-317 136 q-129 0 -238.5 -63.5t-170.5 -171.5v-471z" />
<glyph unicode="c" horiz-adv-x="1085" d="M123 481q0 217 143.5 364.5t368.5 147.5q190 0 328 -102v-31l-11 -10q-141 102 -317 102q-199 0 -333 -135t-134 -335.5t134 -336t333 -135.5q176 0 317 103l11 -11v-30q-137 -102 -328 -103q-225 0 -368.5 147.5t-143.5 364.5z" />
<glyph unicode="d" horiz-adv-x="1269" d="M123 481q0 215 142.5 363.5t348.5 148.5q256 0 410 -205v635l10 11h21l10 -11v-1413l-10 -10h-21l-10 10v164q-154 -205 -410 -205q-207 0 -349 148.5t-142 363.5zM168 481.5q0 -198.5 130 -335t316 -136.5q129 0 239 63.5t171 172.5v471q-61 109 -171 172t-239 63 q-186 0 -316 -136t-130 -334.5z" />
<glyph unicode="e" horiz-adv-x="1126" d="M123 492q0 213 130 357t341 144q139 0 236.5 -73.5t135.5 -170t38 -196.5q0 -29 -11 -51l-20 -10h-805q0 -205 128 -343.5t339 -138.5q188 0 338 133l10 -10v-31q-51 -51 -149.5 -92t-198.5 -41q-231 0 -371.5 151t-140.5 372zM168 532h795q-8 188 -105.5 304t-263.5 116 q-186 0 -298 -118t-128 -302z" />
<glyph unicode="f" horiz-adv-x="737" d="M82 932v22l10 9h154v143q0 158 81 258t216 100q72 0 153 -41v-30l-10 -11q-82 41 -143 41q-121 0 -188.5 -89t-67.5 -238v-133h399l10 -11v-20l-10 -10h-399v-912l-11 -10h-20l-10 10v912h-154z" />
<glyph unicode="g" horiz-adv-x="1064" d="M82 -266q0 53 25.5 102t77 95t90 74t100.5 67q-139 59 -139 143q0 61 51 104q-143 113 -144 295q0 158 114 268.5t275 110.5q76 0 154 -30h279l8 -9v-24l-8 -8h-205q162 -115 162 -308q0 -158 -114 -268t-276 -110q-117 0 -210 59q-41 -39 -41 -80q0 -47 72.5 -83 t175 -64.5t206 -64.5t176 -102.5t72.5 -156.5q0 -125 -114.5 -206t-319.5 -81q-467 1 -467 277zM127 -266q0 -119 112.5 -177.5t309.5 -58.5q186 0 287.5 70t101.5 176q0 45 -25.5 84t-61.5 64.5t-95.5 51t-108.5 40.5l-119 35q-70 22 -108 36q-293 -171 -293 -321z M188 614.5q0 -137.5 102.5 -238t242 -100.5t242 100.5t102.5 238t-102.5 237.5t-242 100t-242 -100t-102.5 -237.5z" />
<glyph unicode="h" d="M205 10v1413l10 11h21l10 -11v-635q70 94 173 149.5t216 55.5q410 0 409 -491v-492l-10 -10h-20l-10 10v482q0 233 -89.5 346.5t-279.5 113.5q-115 0 -221.5 -64.5t-167.5 -170.5v-707l-10 -10h-21z" />
<glyph unicode="i" horiz-adv-x="450" d="M164 1219v20l51 51h21l51 -51v-20l-51 -52h-21zM205 10v942l10 11h21l10 -11v-942l-10 -10h-21z" />
<glyph unicode="j" horiz-adv-x="450" d="M-82 -492l10 11q41 -20 103 -21q174 0 174 287v1167l10 11h21l10 -11v-1177q0 -317 -215 -318q-72 0 -113 21v30zM164 1219v20l51 51h21l51 -51v-20l-51 -52h-21z" />
<glyph unicode="k" horiz-adv-x="942" d="M205 10v1413l10 11h21l10 -11v-870l512 399l20 11h31l10 -11l-543 -430l605 -512l-11 -10h-30l-21 10l-573 482v-482l-10 -10h-21z" />
<glyph unicode="l" horiz-adv-x="614" d="M184 266v1157l11 11h20l10 -11v-1147q0 -266 164 -266q80 0 154 62l10 -11v-30q-82 -61 -164 -62q-205 0 -205 297z" />
<glyph unicode="m" horiz-adv-x="1863" d="M205 10v942l10 11h21l10 -11v-164q154 205 368 205q117 0 208 -65.5t124 -179.5q76 117 170 181t236 64q328 0 327 -450v-533l-10 -10h-20l-11 10v522q0 219 -77.5 319.5t-208.5 100.5q-244 0 -389 -256v-686l-11 -10h-20l-10 10v553q0 193 -85 291t-223 98 q-113 0 -209 -62.5t-159 -172.5v-707l-10 -10h-21z" />
<glyph unicode="n" d="M205 10v942l10 11h21l10 -11v-164q70 94 173 149.5t216 55.5q410 0 409 -491v-492l-10 -10h-20l-10 10v482q0 233 -89.5 346.5t-279.5 113.5q-115 0 -221.5 -64.5t-167.5 -170.5v-707l-10 -10h-21z" />
<glyph unicode="o" d="M123 481q0 215 142.5 363.5t349 148.5t349 -148.5t142.5 -363.5t-142.5 -363.5t-349 -148.5t-349 148.5t-142.5 363.5zM168 481.5q0 -198.5 130 -335t316.5 -136.5t316.5 136.5t130 335t-130 334.5t-316.5 136t-316.5 -136t-130 -334.5z" />
<glyph unicode="p" horiz-adv-x="1269" d="M205 -461v1413l10 11h21l10 -11v-164q154 205 409 205q207 0 349.5 -148.5t142.5 -363.5t-142.5 -363.5t-349.5 -148.5q-256 0 -409 205v-635l-10 -10h-21zM246 246q61 -109 170.5 -172.5t238.5 -63.5q186 0 316.5 136.5t130.5 335t-130 334.5t-317 136 q-129 0 -238.5 -63.5t-170.5 -171.5v-471z" />
<glyph unicode="q" horiz-adv-x="1290" d="M143 481q0 215 142.5 363.5t349.5 148.5q256 0 409 -205v164l11 11h20l10 -11v-1413l-10 -10h-20l-11 10v635q-154 -205 -409 -205q-207 0 -349.5 148.5t-142.5 363.5zM188 481.5q0 -198.5 130.5 -335t316.5 -136.5q129 0 238.5 63.5t170.5 172.5v471q-61 109 -170.5 172 t-238.5 63q-186 0 -316.5 -136t-130.5 -334.5z" />
<glyph unicode="r" horiz-adv-x="942" d="M205 10v942l10 11h21l10 -11v-164q70 92 182.5 148.5t226.5 56.5q113 0 195 -41l10 -41l-10 -10q-72 51 -195 51q-117 0 -233.5 -65.5t-175.5 -169.5v-707l-10 -10h-21z" />
<glyph unicode="s" horiz-adv-x="942" d="M133 51v35l10 10q127 -86 318 -86q133 0 223 69.5t90 176.5q0 76 -64.5 124t-157.5 75l-186 54q-93 28 -158 84t-65 144q0 106 93.5 181t224.5 75q186 0 317 -82v-34l-10 -11q-135 86 -307 86q-115 0 -194 -61.5t-79 -153.5q0 -76 64.5 -123t158.5 -72l186 -54 q93 -28 157.5 -85t64.5 -147q0 -121 -105.5 -204t-252.5 -83q-191 0 -328 82z" />
<glyph unicode="t" horiz-adv-x="798" d="M82 932v20l10 11h164v235l10 10h21l10 -12v-233h451l10 -11v-20l-10 -10h-451v-615q0 -158 66.5 -227.5t168.5 -69.5q129 0 216 62l10 -11v-30q-92 -61 -226 -62q-127 0 -201.5 82t-74.5 246v625h-164z" />
<glyph unicode="u" d="M184 461v491l11 11h20l10 -11v-481q0 -233 89 -347t280 -114q115 0 221.5 64.5t167.5 171.5v706l10 11h21l10 -11v-942l-10 -10h-21l-10 10v164q-70 -94 -173 -149.5t-216 -55.5q-410 0 -410 492z" />
<glyph unicode="v" horiz-adv-x="1024" d="M61 952l11 11h24l10 -11l406 -911l406 911l10 11h24l11 -11l-420 -942l-11 -10h-40l-11 10z" />
<glyph unicode="w" horiz-adv-x="1597" d="M61 952l11 11h24l10 -11l365 -907l307 866l10 11h21l10 -11l307 -866l365 907l10 11h25l10 -11l-379 -942l-10 -10h-41l-10 10l-297 840l-297 -840l-10 -10h-41l-11 10z" />
<glyph unicode="x" horiz-adv-x="901" d="M61 10l363 482l-342 460l10 11h21l20 -11l318 -430l317 430l20 11h21l10 -11l-342 -460l363 -482l-11 -10h-20l-21 10l-337 451l-338 -451l-21 -10h-20z" />
<glyph unicode="y" horiz-adv-x="1024" d="M61 -461l11 10q78 0 132 52.5t124 173.5l164 338l-431 839l11 11h20l21 -11l409 -788l389 788l21 11h20l11 -11l-594 -1198q-68 -129 -132.5 -187.5t-164.5 -58.5l-11 15v16z" />
<glyph unicode="z" horiz-adv-x="921" d="M82 10l686 912h-637l-8 10v20l10 11h696l11 -11l-686 -911h675l11 -10v-21l-11 -10h-737z" />
<glyph unicode="{" horiz-adv-x="778" d="M123 461v20l10 11q109 0 160 79.5t51 206.5q0 45 -8 153.5t-8 215.5q0 328 317 328l10 -11v-20l-10 -10q-272 0 -272 -287q0 -106 8 -215t8 -154q0 -244 -174 -307q174 -63 174 -307q0 -45 -8 -153.5t-8 -215.5q0 -287 272 -287l10 -10v-20l-10 -10q-317 0 -317 327 q0 106 8 215t8 154q0 127 -51 207t-160 80z" />
<glyph unicode="|" horiz-adv-x="614" d="M287 -604v2027l10 11h20l11 -11v-2027l-11 -10h-20z" />
<glyph unicode="}" horiz-adv-x="778" d="M123 -502l10 10q272 0 273 287q0 106 -8.5 215t-8.5 154q0 244 174 307q-174 63 -174 307q0 45 8.5 153.5t8.5 215.5q0 287 -273 287l-10 10v20l10 11q317 0 318 -328q0 -106 -8.5 -215t-8.5 -154q0 -127 51.5 -206.5t159.5 -79.5l10 -11v-20l-10 -10q-109 0 -160 -80 t-51 -207q0 -45 8.5 -153.5t8.5 -215.5q0 -328 -318 -327l-10 10v20z" />
<glyph unicode="~" horiz-adv-x="1146" d="M154 676q78 143 225 143q80 0 208 -46t191 -46q127 0 205 102l10 -10q-78 -143 -225 -143q-80 0 -208 46t-191 46q-127 0 -205 -102z" />
<glyph unicode="&#xa1;" horiz-adv-x="614" d="M205 901v21l51 51h20l52 -51v-21l-52 -51h-20zM246 -246v830l10 10h20l11 -10v-830v-235l-11 -11h-20l-10 11v235z" />
<glyph unicode="&#xa2;" horiz-adv-x="1146" d="M123 727q0 207 129 348.5t342 163.5v184l10 11h21l10 -11v-184q190 0 328 -102v-31l-11 -10q-141 102 -317 102v-942q176 0 317 102l11 -10v-31q-137 -102 -328 -102v-205l-10 -10h-21l-10 10v205q-213 14 -342 157.5t-129 354.5zM168 727.5q0 -190.5 121 -323 t305 -148.5v942q-184 -16 -305 -148t-121 -322.5z" />
<glyph unicode="&#xa3;" horiz-adv-x="1146" d="M82 635l10 20l10 11h207q8 133 17.5 227t26 192.5t41 162t60 115.5t86 76.5t115.5 24.5q164 0 277 -164l-21 -30h-10q-98 154 -246 153q-59 0 -105 -22.5t-77 -75.5t-51.5 -109.5t-34.5 -155.5t-22.5 -179t-16.5 -215h410l10 -11l-10 -20l-10 -10h-400 q-16 -174 -68.5 -356.5t-105.5 -227.5h901l10 -10l-12 -25l-18 -6h-953l-10 10q84 70 140.5 251t74.5 364h-215z" />
<glyph unicode="&#xa4;" horiz-adv-x="1146" d="M123 307v21l125 125q-115 119 -115 284q0 174 125 295l-135 135v21l10 10h21l137 -137q119 96 272 96q160 0 283 -106l147 147h21l10 -10v-21l-145 -145q115 -125 114 -285q0 -158 -104 -274l135 -135v-21l-10 -10h-21l-135 135q-125 -115 -295 -115q-164 0 -284 105 l-125 -125h-21zM178 737.5q0 -157.5 112.5 -268.5t272.5 -111t272.5 111t112.5 268.5t-112.5 268t-272.5 110.5t-272.5 -110.5t-112.5 -268z" />
<glyph unicode="&#xa5;" horiz-adv-x="1146" d="M143 1423l11 11h20l21 -11l378 -665l379 667l21 9h20l11 -11l-390 -675h297l11 -11v-20l-11 -10h-317v-287h317l11 -10v-21l-11 -10h-317v-369l-10 -10h-21l-10 10v369h-317l-11 10v21l11 10h317v287h-317l-11 10v20l11 11h296z" />
<glyph unicode="&#xa6;" horiz-adv-x="614" d="M287 338l10 10h20l11 -10v-942l-11 -10h-20l-10 10v942zM287 481v942l10 11h20l11 -11v-942l-11 -10h-20z" />
<glyph unicode="&#xa7;" horiz-adv-x="1013" d="M123 -20l20 10h21q104 -225 317 -226q121 0 207 84t86 203q0 82 -64.5 146.5t-157.5 113.5t-186.5 104.5t-158 142.5t-64.5 200q0 94 43 176t119 133q-29 61 -29 131q0 111 81 188.5t196 77.5q102 0 171 -48t126 -146l-21 -10h-20q-57 88 -112.5 125.5t-143.5 37.5 q-96 0 -163.5 -65.5t-67.5 -159.5q0 -78 42 -142.5t105 -105.5l137 -89q74 -48 137.5 -94t105.5 -123t42 -173q0 -176 -105 -297q33 -59 33 -123q0 -135 -99 -231t-239 -96q-245 0 -358 256zM188 758q0 -84 43 -151.5t114 -116t145.5 -89.5t151.5 -91t118 -99q86 104 86 260 q0 104 -63.5 186t-144.5 128t-176 113t-138 134q-136 -98 -136 -274z" />
<glyph unicode="&#xa8;" d="M328 1219v20l51 51h20l52 -51v-20l-52 -52h-20zM778 1219v20l51 51h21l51 -51v-20l-51 -52h-21z" />
<glyph unicode="&#xa9;" horiz-adv-x="1720" d="M123 716.5q0 317.5 217 532.5t520 215t520 -215t217 -532.5t-217 -532.5t-520 -215t-520 215t-217 532.5zM168 717q0 -291 203.5 -499t488.5 -208t488.5 208t203.5 499t-203.5 498.5t-488.5 207.5t-488.5 -207.5t-203.5 -498.5zM481 727q0 162 117 275.5t283 113.5 q150 0 245 -72v-30l-10 -10q-100 72 -235 71q-147 0 -251 -101.5t-104 -246.5t103.5 -246.5t251.5 -101.5q121 0 235 82l10 -15v-26q-109 -82 -245 -82q-166 0 -283 113.5t-117 275.5z" />
<glyph unicode="&#xaa;" horiz-adv-x="901" d="M113 1136.5q0 135.5 99 231.5t239 96q143 0 256 -108v88l10 10h20l11 -10v-615l-11 -10h-20l-10 10v89q-113 -109 -256 -109q-139 0 -238.5 96t-99.5 231.5zM133 635v20l10 11h635l10 -11v-20l-10 -10h-635zM158 1136.5q0 -118.5 86 -202.5t207 -84q160 0 256 139v293 q-55 74 -127 107.5t-129 33.5q-121 0 -207 -84t-86 -202.5z" />
<glyph unicode="&#xab;" horiz-adv-x="983" d="M82 471v21l399 399l11 -10v-31l-369 -369l369 -368v-31l-11 -10zM451 471v21l399 399l10 -10v-31l-368 -369l368 -368v-31l-10 -10z" />
<glyph unicode="&#xac;" horiz-adv-x="1146" d="M174 819v21l10 10h779l10 -10v-482l-10 -10h-21l-10 10v451h-748z" />
<glyph unicode="&#xad;" horiz-adv-x="901" d="M123 471v21l10 10h635l10 -10v-21l-10 -10h-635z" />
<glyph unicode="&#xae;" horiz-adv-x="1146" d="M123 1044.5q0 186.5 132 318.5t318.5 132t318.5 -132t132 -318.5t-132 -318.5t-318.5 -132t-318.5 132t-132 318.5zM168 1044q0 -170 119 -289.5t286.5 -119.5t286.5 119.5t119 289.5t-119 290t-286.5 120t-286.5 -120t-119 -290zM440 829v441l11 10h143q76 0 120 -41 t44 -102q0 -57 -36 -94t-87 -44l123 -170l-10 -10h-21l-20 10l-123 164h-103v-164l-10 -10h-20zM481 1034h113q57 0 88 29t31 74t-30 73.5t-89 28.5h-113v-205z" />
<glyph unicode="&#xaf;" d="M287 1219v20l10 10h635l10 -10v-20l-10 -11h-635z" />
<glyph unicode="&#xb0;" horiz-adv-x="901" d="M113 1157q0 135 99 231.5t238.5 96.5t238.5 -96.5t99 -231.5t-99 -231.5t-238.5 -96.5t-238.5 96.5t-99 231.5zM158 1157q0 -117 86 -202t206.5 -85t206.5 85t86 202t-86 202t-206.5 85t-206.5 -85t-86 -202z" />
<glyph unicode="&#xb1;" horiz-adv-x="1146" d="M174 92v21l10 10h779l10 -10v-21l-10 -10h-779zM174 737v21l10 10h369v369l10 10h21l10 -10v-369h369l10 -10v-21l-10 -10h-369v-369l-10 -10h-21l-10 10v369h-369z" />
<glyph unicode="&#xb2;" horiz-adv-x="655" d="M82 1659v31q102 102 205 102q94 0 159.5 -63.5t65.5 -161.5q0 -92 -123 -297l-215 -328h348l10 -10v-21l-10 -10h-409l-11 10l256 389q109 170 109 267q0 84 -51 134t-129 50q-92 0 -195 -102z" />
<glyph unicode="&#xb3;" horiz-adv-x="737" d="M82 1004l20 30h11q92 -123 235 -123q100 0 171 73t71 173t-63.5 157.5t-178.5 57.5q-31 0 -72 -20l-10 10l236 358h-389l-11 11v20l11 10h450l10 -10l-225 -338q13 1 25 1q112 0 183 -66q79 -74 79 -191q0 -115 -86 -201t-201 -86q-162 1 -266 134z" />
<glyph unicode="&#xb4;" d="M502 1065l297 297l20 10h33l8 -10l-307 -297l-21 -10h-20z" />
<glyph unicode="&#xb5;" horiz-adv-x="1269" d="M205 -461v1413l10 11h21l10 -11v-501q0 -440 368 -441q115 0 228.5 63.5t191.5 172.5q-10 147 -10 471v235l10 11h21l10 -11v-235q0 -461 51 -707l-10 -10h-27l-10 10q-12 66 -25 185q-82 -104 -197.5 -165t-232.5 -61q-276 0 -368 215v-645l-10 -10h-21z" />
<glyph unicode="&#xb6;" horiz-adv-x="1269" d="M123 993.5q0 186.5 139 313.5t352 127h443l8 -11v-1413l-10 -10h-21l-10 10v1383h-328v-1383l-10 -10h-20l-11 10v543q-250 0 -391 127t-141 313.5z" />
<glyph unicode="&#xb7;" horiz-adv-x="614" d="M266 666v61l10 10h62l10 -10v-61l-10 -11h-62z" />
<glyph unicode="&#xb8;" d="M389 -420l21 31h10q53 -72 143 -72q68 0 109 39t41 94.5t-41 94t-109 38.5l-10 11l41 184h41l-31 -154q72 -16 113 -61t41 -113q0 -70 -56.5 -122t-138.5 -52q-113 0 -174 82z" />
<glyph unicode="&#xb9;" horiz-adv-x="450" d="M246 911v820l10 20l20 21l11 -11v-850l-11 -10h-20z" />
<glyph unicode="&#xba;" horiz-adv-x="901" d="M113 1136.5q0 135.5 99 231.5t238.5 96t238.5 -96t99 -231.5t-99 -231.5t-238.5 -96t-238.5 96t-99 231.5zM133 635v20l10 11h635l10 -11v-20l-10 -10h-635zM158 1136.5q0 -116.5 86 -201.5t206.5 -85t206.5 85t86 201.5t-86 201.5t-206.5 85t-206.5 -85t-86 -201.5z" />
<glyph unicode="&#xbb;" horiz-adv-x="983" d="M123 82v31l369 368l-369 369v31l10 10l399 -399v-21l-399 -399zM492 82v31l368 368l-368 369v31l10 10l399 -399v-21l-399 -399z" />
<glyph unicode="&#xbc;" horiz-adv-x="1720" d="M410 584v819l10 20l20 21l11 -10v-850l-11 -11h-20zM430 10l809 1413l21 11h20l10 -11l-809 -1413l-20 -10h-21zM942 307l502 563l10 -10v-522h174l10 -10v-21l-10 -10h-174v-287l-10 -10h-21l-10 10v287h-461zM1024 338h389v440z" />
<glyph unicode="&#xbd;" horiz-adv-x="1720" d="M389 10l809 1413l21 11h20l10 -11l-809 -1413l-20 -10h-21zM410 584v819l10 20l20 21l11 -10v-850l-11 -11h-20zM1065 758v30q102 102 205 103q94 0 159.5 -63.5t65.5 -161.5q0 -92 -123 -297l-215 -328h348l11 -10v-21l-11 -10h-409l-11 10l256 389q109 170 109 267 q0 84 -51 134t-129 50q-92 0 -195 -102z" />
<glyph unicode="&#xbe;" horiz-adv-x="1720" d="M154 666l20 30h10q96 -113 226 -112q100 0 170.5 72.5t70.5 174.5q0 98 -63.5 155.5t-177.5 57.5q-31 0 -72 -20l-10 10l235 359h-389l-10 10v20l10 11h451l10 -11l-225 -338q13 1 25 1q111 0 182 -65q79 -73 79 -189.5t-86 -202.5t-200 -86q-147 0 -256 123zM471 10 l809 1413l20 11h21l10 -11l-809 -1413l-20 -10h-21zM942 307l502 563l10 -10v-522h174l10 -10v-21l-10 -10h-174v-287l-10 -10h-21l-10 10v287h-461zM1024 338h389v440z" />
<glyph unicode="&#xbf;" horiz-adv-x="962" d="M123 -184q0 74 43 145.5t104 127.5l122 111q60 54 103.5 114.5t43.5 115.5q0 61 -25 98t-74 76l31 31q113 -78 113 -205q0 -61 -43 -124.5t-104 -119.5l-122 -111q-61 -56 -104 -124t-43 -135q0 -123 86 -210t207 -87q217 0 342 231h10l27 -16q-55 -119 -153.5 -187.5 t-225.5 -68.5q-139 0 -238.5 99.5t-99.5 238.5zM410 901v21l51 51h20l51 -51v-21l-51 -51h-20z" />
<glyph unicode="&#xc0;" horiz-adv-x="1310" d="M61 10l564 1413l10 11h41l10 -11l563 -1413l-10 -10h-20l-11 10l-198 492h-709l-199 -492l-10 -10h-20zM317 543h676l-338 850zM389 1782l8 10h54l20 -10l297 -256l-10 -10h-21l-20 10z" />
<glyph unicode="&#xc1;" horiz-adv-x="1310" d="M61 10l564 1413l10 11h41l10 -11l563 -1413l-10 -10h-20l-11 10l-198 492h-709l-199 -492l-10 -10h-20zM317 543h676l-338 850zM543 1526l297 256l20 10h53l9 -10l-328 -256l-21 -10h-20z" />
<glyph unicode="&#xc2;" horiz-adv-x="1310" d="M61 10l564 1413l10 11h41l10 -11l563 -1413l-10 -10h-20l-11 10l-198 492h-709l-199 -492l-10 -10h-20zM317 543h676l-338 850zM379 1526l246 256l20 10h21l20 -10l246 -256l-10 -10h-21l-20 10l-226 235l-225 -235l-20 -10h-21z" />
<glyph unicode="&#xc3;" horiz-adv-x="1310" d="M61 10l564 1413l10 11h41l10 -11l563 -1413l-10 -10h-20l-11 10l-198 492h-709l-199 -492l-10 -10h-20zM266 1587q78 143 205 144q80 0 197.5 -56.5t181.5 -56.5q100 0 184 113l10 -11q-78 -143 -204 -143q-80 0 -198 56.5t-181 56.5q-100 0 -185 -113zM317 543h676 l-338 850z" />
<glyph unicode="&#xc4;" horiz-adv-x="1310" d="M61 10l564 1413l10 11h41l10 -11l563 -1413l-10 -10h-20l-11 10l-198 492h-709l-199 -492l-10 -10h-20zM317 543h676l-338 850zM348 1638v21l62 61h20l62 -61v-21l-62 -61h-20zM819 1638v21l62 61h20l62 -61v-21l-62 -61h-20z" />
<glyph unicode="&#xc5;" horiz-adv-x="1310" d="M61 10l564 1413l10 11h41l10 -11l563 -1413l-10 -10h-20l-11 10l-198 492h-709l-199 -492l-10 -10h-20zM317 543h676l-338 850zM451 1638.5q0 79.5 60 137t144 57.5t144.5 -57.5t60.5 -137t-60.5 -137t-144.5 -57.5t-144 57.5t-60 137zM496 1638.5q0 -63.5 46 -108.5 t113.5 -45t113.5 45t46 108.5t-46 108.5t-113.5 45t-113.5 -45t-46 -108.5z" />
<glyph unicode="&#xc6;" horiz-adv-x="2007" d="M61 10l1065 1413l21 11h706l11 -11v-20l-11 -10h-665v-584h502l10 -10v-21l-10 -10h-502v-727h727l10 -10v-21l-10 -10h-758l-10 10v492h-666l-368 -492l-21 -10h-20zM512 543h635v839z" />
<glyph unicode="&#xc7;" horiz-adv-x="1556" d="M143 717q0 307 222.5 527t535.5 220q279 0 492 -153v-41l-11 -10q-209 164 -481 163q-293 0 -503 -207.5t-210 -498.5t210 -499t503 -208q272 0 481 164l11 -10v-41q-213 -154 -492 -154q-313 0 -535.5 220.5t-222.5 527.5zM829 -471l72 338l21 10h30l11 -10l-93 -338 l-10 -10h-20z" />
<glyph unicode="&#xc8;" horiz-adv-x="1064" d="M205 10v1413l10 11h696l11 -11v-20l-11 -10h-665v-584h502l10 -10v-21l-10 -10h-502v-727h727l10 -10v-21l-10 -10h-758zM307 1782l8 10h54l20 -10l297 -256l-10 -10h-21l-20 10z" />
<glyph unicode="&#xc9;" horiz-adv-x="1064" d="M205 10v1413l10 11h696l11 -11v-20l-11 -10h-665v-584h502l10 -10v-21l-10 -10h-502v-727h727l10 -10v-21l-10 -10h-758zM461 1526l297 256l20 10h53l9 -10l-328 -256l-20 -10h-21z" />
<glyph unicode="&#xca;" horiz-adv-x="1064" d="M205 10v1413l10 11h696l11 -11v-20l-11 -10h-665v-584h502l10 -10v-21l-10 -10h-502v-727h727l10 -10v-21l-10 -10h-758zM297 1526l246 256l20 10h21l20 -10l246 -256l-10 -10h-21l-20 10l-226 235l-225 -235l-20 -10h-21z" />
<glyph unicode="&#xcb;" horiz-adv-x="1064" d="M205 10v1413l10 11h696l11 -11v-20l-11 -10h-665v-584h502l10 -10v-21l-10 -10h-502v-727h727l10 -10v-21l-10 -10h-758zM266 1638v21l62 61h20l62 -61v-21l-62 -61h-20zM737 1638v21l62 61h20l62 -61v-21l-62 -61h-20z" />
<glyph unicode="&#xcc;" horiz-adv-x="450" d="M0 1782l8 10h53l21 -10l256 -256l-10 -10h-21l-20 10zM205 10v1413l10 11h21l10 -11v-1413l-10 -10h-21z" />
<glyph unicode="&#xcd;" horiz-adv-x="450" d="M113 1526l256 256l20 10h53l9 -10l-287 -256l-21 -10h-20zM205 10v1413l10 11h21l10 -11v-1413l-10 -10h-21z" />
<glyph unicode="&#xce;" horiz-adv-x="450" d="M-10 1526l205 256l20 10h21l20 -10l205 -256l-10 -10h-21l-20 10l-185 225l-184 -225l-21 -10h-20zM205 10v1413l10 11h21l10 -11v-1413l-10 -10h-21z" />
<glyph unicode="&#xcf;" horiz-adv-x="450" d="M-41 1638v21l61 61h21l61 -61v-21l-61 -61h-21zM205 10v1413l10 11h21l10 -11v-1413l-10 -10h-21zM348 1638v21l62 61h20l62 -61v-21l-62 -61h-20z" />
<glyph unicode="&#xd0;" horiz-adv-x="1413" d="M41 737v21l10 10h154v655l10 11h317q328 0 543 -207t215 -510t-215 -510t-543 -207h-317l-10 10v717h-154zM246 41h286q299 0 506 195.5t207 480t-207 480.5t-506 196h-286v-625h420l10 -10v-21l-10 -10h-420v-686z" />
<glyph unicode="&#xd1;" horiz-adv-x="1515" d="M205 10v1413l10 11h27l20 -11l1008 -1362v1362l10 11h20l11 -11v-1413l-11 -10h-24l-21 10l-1009 1362v-1362l-10 -10h-21zM410 1587q78 143 204 144q80 0 198 -56.5t181 -56.5q100 0 185 113l10 -11q-78 -143 -205 -143q-80 0 -197.5 56.5t-181.5 56.5q-100 0 -184 -113 z" />
<glyph unicode="&#xd2;" horiz-adv-x="1802" d="M143 717q0 309 222.5 528t535.5 219t535.5 -219t222.5 -528t-222.5 -528.5t-535.5 -219.5t-535.5 219.5t-222.5 528.5zM188 717q0 -291 210 -499t503 -208t503 208t210 499t-210 498.5t-503 207.5t-503 -207.5t-210 -498.5zM635 1782l8 10h53l21 -10l297 -256l-10 -10 h-21l-20 10z" />
<glyph unicode="&#xd3;" horiz-adv-x="1802" d="M143 717q0 309 222.5 528t535.5 219t535.5 -219t222.5 -528t-222.5 -528.5t-535.5 -219.5t-535.5 219.5t-222.5 528.5zM188 717q0 -291 210 -499t503 -208t503 208t210 499t-210 498.5t-503 207.5t-503 -207.5t-210 -498.5zM788 1526l297 256l21 10h53l8 -10l-327 -256 l-21 -10h-20z" />
<glyph unicode="&#xd4;" horiz-adv-x="1802" d="M143 717q0 309 222.5 528t535.5 219t535.5 -219t222.5 -528t-222.5 -528.5t-535.5 -219.5t-535.5 219.5t-222.5 528.5zM188 717q0 -291 210 -499t503 -208t503 208t210 499t-210 498.5t-503 207.5t-503 -207.5t-210 -498.5zM625 1526l245 256l21 10h20l21 -10l246 -256 l-11 -10h-20l-21 10l-225 235l-225 -235l-21 -10h-20z" />
<glyph unicode="&#xd5;" horiz-adv-x="1802" d="M143 717q0 309 222.5 528t535.5 219t535.5 -219t222.5 -528t-222.5 -528.5t-535.5 -219.5t-535.5 219.5t-222.5 528.5zM188 717q0 -291 210 -499t503 -208t503 208t210 499t-210 498.5t-503 207.5t-503 -207.5t-210 -498.5zM512 1587q78 143 205 144q80 0 197.5 -56.5 t181.5 -56.5q100 0 184 113l10 -11q-78 -143 -205 -143q-80 0 -197.5 56.5t-180.5 56.5q-100 0 -185 -113z" />
<glyph unicode="&#xd6;" horiz-adv-x="1802" d="M143 717q0 309 222.5 528t535.5 219t535.5 -219t222.5 -528t-222.5 -528.5t-535.5 -219.5t-535.5 219.5t-222.5 528.5zM188 717q0 -291 210 -499t503 -208t503 208t210 499t-210 498.5t-503 207.5t-503 -207.5t-210 -498.5zM594 1638v21l61 61h21l61 -61v-21l-61 -61h-21 zM1065 1638v21l61 61h21l61 -61v-21l-61 -61h-21z" />
<glyph unicode="&#xd7;" horiz-adv-x="1146" d="M246 430v21l297 297l-297 296v21l10 10h20l297 -297l297 297h21l10 -10v-21l-297 -296l297 -297v-21l-10 -10h-21l-297 297l-297 -297h-20z" />
<glyph unicode="&#xd8;" horiz-adv-x="1802" d="M143 0l205 205q-205 215 -205 512q0 309 222.5 528t535.5 219q293 0 510 -196l217 217h10l21 -21v-10l-217 -217q217 -221 217 -520q0 -309 -222.5 -528.5t-535.5 -219.5q-301 0 -522 205l-205 -205h-10l-21 21v10zM188 717q0 -279 191 -481l1001 1001q-207 186 -479 186 q-293 0 -503 -207.5t-210 -498.5zM410 205q207 -195 491 -195q293 0 503 208t210 499q0 283 -203 489z" />
<glyph unicode="&#xd9;" horiz-adv-x="1515" d="M205 635v788l10 11h21l10 -11v-788q0 -297 136 -461t375.5 -164t376 164t136.5 461v788l10 11h20l11 -11v-788q0 -315 -145.5 -490.5t-407.5 -175.5t-407.5 175.5t-145.5 490.5zM492 1782l8 10h53l20 -10l297 -256l-10 -10h-20l-21 10z" />
<glyph unicode="&#xda;" horiz-adv-x="1515" d="M205 635v788l10 11h21l10 -11v-788q0 -297 136 -461t375.5 -164t376 164t136.5 461v788l10 11h20l11 -11v-788q0 -315 -145.5 -490.5t-407.5 -175.5t-407.5 175.5t-145.5 490.5zM645 1526l297 256l21 10h53l8 -10l-328 -256l-20 -10h-21z" />
<glyph unicode="&#xdb;" horiz-adv-x="1515" d="M205 635v788l10 11h21l10 -11v-788q0 -297 136 -461t375.5 -164t376 164t136.5 461v788l10 11h20l11 -11v-788q0 -315 -145.5 -490.5t-407.5 -175.5t-407.5 175.5t-145.5 490.5zM481 1526l246 256l21 10h20l20 -10l246 -256l-10 -10h-20l-21 10l-225 235l-226 -235 l-20 -10h-20z" />
<glyph unicode="&#xdc;" horiz-adv-x="1515" d="M205 635v788l10 11h21l10 -11v-788q0 -297 136 -461t375.5 -164t376 164t136.5 461v788l10 11h20l11 -11v-788q0 -315 -145.5 -490.5t-407.5 -175.5t-407.5 175.5t-145.5 490.5zM451 1638v21l61 61h20l62 -61v-21l-62 -61h-20zM922 1638v21l61 61h21l61 -61v-21l-61 -61 h-21z" />
<glyph unicode="&#xdd;" d="M61 1423l11 11h20l21 -11l501 -635l504 635l19 11h20l10 -11l-532 -675v-738l-10 -10h-21l-10 10v738zM502 1526l297 256l20 10h53l9 -10l-328 -256l-21 -10h-20z" />
<glyph unicode="&#xde;" horiz-adv-x="1146" d="M205 10v1413l10 11h21l10 -11v-297h286q256 0 384 -105.5t128 -293.5t-128 -293.5t-384 -105.5h-286v-318l-10 -10h-21zM246 369h286q225 0 346 91t121 267t-120.5 267t-346.5 91h-286v-716z" />
<glyph unicode="&#xdf;" horiz-adv-x="1146" d="M205 10v1096q0 154 90 256t227 102q119 0 198 -73.5t79 -202.5q0 -96 -35 -169t-70 -134.5t-35 -126.5q0 -49 38 -90t91.5 -74t106.5 -71t91 -101.5t38 -145.5q0 -127 -93 -217t-224 -90q-127 0 -246 72v41l10 10q117 -82 236 -82q113 0 192.5 78t79.5 188 q0 74 -38 130.5t-91 91.5l-107 68q-53 34 -91 82t-38 110q0 88 70 203.5t70 226t-65.5 173t-166.5 62.5q-123 0 -199.5 -91t-76.5 -236v-1086l-10 -10h-21z" />
<glyph unicode="&#xe0;" horiz-adv-x="1064" d="M123 225q0 94 51 161t151.5 108t224.5 61t290 29q0 199 -89 283.5t-259 84.5q-123 0 -287 -82l-10 11l20 41q143 72 277 71q199 0 294 -100t95 -309v-574l-11 -10h-20l-10 10v103q-184 -143 -389 -144q-143 0 -235.5 68.5t-92.5 187.5zM168 225q0 -102 81 -158.5 t202 -56.5q102 0 208.5 44t180.5 110v379q-156 -8 -267.5 -25.5t-209 -52.5t-146.5 -94.5t-49 -145.5zM276 1362l9 10h32l21 -10l297 -297l-10 -10h-21l-20 10z" />
<glyph unicode="&#xe1;" horiz-adv-x="1064" d="M123 225q0 94 51 161t151.5 108t224.5 61t290 29q0 199 -89 283.5t-259 84.5q-123 0 -287 -82l-10 11l20 41q143 72 277 71q199 0 294 -100t95 -309v-574l-11 -10h-20l-10 10v103q-184 -143 -389 -144q-143 0 -235.5 68.5t-92.5 187.5zM168 225q0 -102 81 -158.5 t202 -56.5q102 0 208.5 44t180.5 110v379q-156 -8 -267.5 -25.5t-209 -52.5t-146.5 -94.5t-49 -145.5zM410 1065l297 297l20 10h33l8 -10l-307 -297l-21 -10h-20z" />
<glyph unicode="&#xe2;" horiz-adv-x="1064" d="M123 225q0 94 51 161t151.5 108t224.5 61t290 29q0 199 -89 283.5t-259 84.5q-123 0 -287 -82l-10 11l20 41q143 72 277 71q199 0 294 -100t95 -309v-574l-11 -10h-20l-10 10v103q-184 -143 -389 -144q-143 0 -235.5 68.5t-92.5 187.5zM168 225q0 -102 81 -158.5 t202 -56.5q102 0 208.5 44t180.5 110v379q-156 -8 -267.5 -25.5t-209 -52.5t-146.5 -94.5t-49 -145.5zM246 1065l246 297l20 10h20l21 -10l246 -297l-11 -10h-20l-20 10l-226 276l-225 -276l-21 -10h-20z" />
<glyph unicode="&#xe3;" horiz-adv-x="1064" d="M123 225q0 94 51 161t151.5 108t224.5 61t290 29q0 199 -89 283.5t-259 84.5q-123 0 -287 -82l-10 11l20 41q143 72 277 71q199 0 294 -100t95 -309v-574l-11 -10h-20l-10 10v103q-184 -143 -389 -144q-143 0 -235.5 68.5t-92.5 187.5zM168 225q0 -102 81 -158.5 t202 -56.5q102 0 208.5 44t180.5 110v379q-156 -8 -267.5 -25.5t-209 -52.5t-146.5 -94.5t-49 -145.5zM174 1116q78 143 195 144q70 0 167 -56.5t150 -56.5t90 24.5t84 88.5l10 -11q-78 -143 -194 -143q-70 0 -167 56.5t-150.5 56.5t-90.5 -25t-84 -88z" />
<glyph unicode="&#xe4;" horiz-adv-x="1064" d="M123 225q0 94 51 161t151.5 108t224.5 61t290 29q0 199 -89 283.5t-259 84.5q-123 0 -287 -82l-10 11l20 41q143 72 277 71q199 0 294 -100t95 -309v-574l-11 -10h-20l-10 10v103q-184 -143 -389 -144q-143 0 -235.5 68.5t-92.5 187.5zM168 225q0 -102 81 -158.5 t202 -56.5q102 0 208.5 44t180.5 110v379q-156 -8 -267.5 -25.5t-209 -52.5t-146.5 -94.5t-49 -145.5zM236 1219v20l51 51h20l51 -51v-20l-51 -52h-20zM686 1219v20l51 51h21l51 -51v-20l-51 -52h-21z" />
<glyph unicode="&#xe5;" horiz-adv-x="1064" d="M123 225q0 94 51 161t151.5 108t224.5 61t290 29q0 199 -89 283.5t-259 84.5q-123 0 -287 -82l-10 11l20 41q143 72 277 71q199 0 294 -100t95 -309v-574l-11 -10h-20l-10 10v103q-184 -143 -389 -144q-143 0 -235.5 68.5t-92.5 187.5zM168 225q0 -102 81 -158.5 t202 -56.5q102 0 208.5 44t180.5 110v379q-156 -8 -267.5 -25.5t-209 -52.5t-146.5 -94.5t-49 -145.5zM317 1229q0 80 60.5 137t144.5 57t144.5 -57t60.5 -137t-60.5 -137.5t-144.5 -57.5t-144.5 57.5t-60.5 137.5zM362 1228.5q0 -63.5 46.5 -108.5t114 -45t113.5 45 t46 108.5t-46 108.5t-113.5 45t-114 -45t-46.5 -108.5z" />
<glyph unicode="&#xe6;" horiz-adv-x="1761" d="M123 225q0 307 676 307q0 236 -85 328t-233 92q-113 0 -276 -82l-10 11l20 41q143 72 266 71q311 0 353 -307q45 135 155.5 221t259.5 86q98 0 176 -42t123 -109.5t67.5 -141t22.5 -147.5q0 -29 -10 -51l-20 -10h-764q0 -201 126 -341.5t310 -140.5q178 0 328 133l10 -10 v-31q-53 -53 -142.5 -93t-195.5 -40q-156 0 -274.5 92.5t-171.5 235.5q-33 -154 -149 -241t-255 -87q-129 0 -218 68.5t-89 187.5zM168 225q0 -102 77 -158.5t185 -56.5q143 0 256 102.5t113 276.5v103q-631 -1 -631 -267zM844 532h753q-8 186 -102 303t-246 117 q-172 0 -280.5 -119t-124.5 -301z" />
<glyph unicode="&#xe7;" horiz-adv-x="1085" d="M123 481q0 217 143.5 364.5t368.5 147.5q190 0 328 -102v-31l-11 -10q-141 102 -317 102q-199 0 -333 -135t-134 -335.5t134 -336t333 -135.5q176 0 317 103l11 -11v-30q-137 -102 -328 -103q-225 0 -368.5 147.5t-143.5 364.5zM563 -471l72 338l20 10h31l10 -10 l-92 -338l-10 -10h-21z" />
<glyph unicode="&#xe8;" horiz-adv-x="1126" d="M123 492q0 213 130 357t341 144q139 0 236.5 -73.5t135.5 -170t38 -196.5q0 -29 -11 -51l-20 -10h-805q0 -205 128 -343.5t339 -138.5q188 0 338 133l10 -10v-31q-51 -51 -149.5 -92t-198.5 -41q-231 0 -371.5 151t-140.5 372zM168 532h795q-8 188 -105.5 304t-263.5 116 q-186 0 -298 -118t-128 -302zM348 1362l8 10h33l21 -10l297 -297l-11 -10h-20l-21 10z" />
<glyph unicode="&#xe9;" horiz-adv-x="1126" d="M123 492q0 213 130 357t341 144q139 0 236.5 -73.5t135.5 -170t38 -196.5q0 -29 -11 -51l-20 -10h-805q0 -205 128 -343.5t339 -138.5q188 0 338 133l10 -10v-31q-51 -51 -149.5 -92t-198.5 -41q-231 0 -371.5 151t-140.5 372zM168 532h795q-8 188 -105.5 304t-263.5 116 q-186 0 -298 -118t-128 -302zM481 1065l297 297l21 10h32l9 -10l-308 -297l-20 -10h-20z" />
<glyph unicode="&#xea;" horiz-adv-x="1126" d="M123 492q0 213 130 357t341 144q139 0 236.5 -73.5t135.5 -170t38 -196.5q0 -29 -11 -51l-20 -10h-805q0 -205 128 -343.5t339 -138.5q188 0 338 133l10 -10v-31q-51 -51 -149.5 -92t-198.5 -41q-231 0 -371.5 151t-140.5 372zM168 532h795q-8 188 -105.5 304t-263.5 116 q-186 0 -298 -118t-128 -302zM317 1065l246 297l21 10h20l21 -10l245 -297l-10 -10h-20l-21 10l-225 276l-225 -276l-21 -10h-20z" />
<glyph unicode="&#xeb;" horiz-adv-x="1126" d="M123 492q0 213 130 357t341 144q139 0 236.5 -73.5t135.5 -170t38 -196.5q0 -29 -11 -51l-20 -10h-805q0 -205 128 -343.5t339 -138.5q188 0 338 133l10 -10v-31q-51 -51 -149.5 -92t-198.5 -41q-231 0 -371.5 151t-140.5 372zM168 532h795q-8 188 -105.5 304t-263.5 116 q-186 0 -298 -118t-128 -302zM307 1219v20l51 51h21l51 -51v-20l-51 -52h-21zM758 1219v20l51 51h20l52 -51v-20l-52 -52h-20z" />
<glyph unicode="&#xec;" horiz-adv-x="450" d="M0 1362l8 10h33l20 -10l236 -297l-10 -10h-21l-20 10zM205 10v942l10 11h21l10 -11v-942l-10 -10h-21z" />
<glyph unicode="&#xed;" horiz-adv-x="450" d="M154 1065l235 297l21 10h32l9 -10l-246 -297l-21 -10h-20zM205 10v942l10 11h21l10 -11v-942l-10 -10h-21z" />
<glyph unicode="&#xee;" horiz-adv-x="450" d="M-10 1065l205 297l20 10h21l20 -10l205 -297l-10 -10h-21l-20 10l-185 256l-184 -256l-21 -10h-20zM205 10v942l10 11h21l10 -11v-942l-10 -10h-21z" />
<glyph unicode="&#xef;" horiz-adv-x="450" d="M-20 1219v20l51 51h20l51 -51v-20l-51 -52h-20zM205 10v942l10 11h21l10 -11v-942l-10 -10h-21zM348 1219v20l51 51h21l51 -51v-20l-51 -52h-21z" />
<glyph unicode="&#xf0;" horiz-adv-x="1269" d="M123 461q0 203 147.5 347t354.5 144q137 0 229 -31.5t170 -101.5l-32 57l-30 54q-7 12 -28 45t-35 51l-38 49q-24 31 -51 60l-62 63l-349 -113l-10 11v20l10 21l308 102q-119 117 -224 184l11 11h49q106 -66 215 -174l317 112l10 -10v-21l-10 -20l-276 -102 q152 -156 250 -337.5t98 -349.5q0 -143 -48 -255.5t-126 -177t-167 -97.5t-181 -33q-207 0 -354.5 144.5t-147.5 347.5zM168 460.5q0 -186.5 134 -318.5t322.5 -132t333 136.5t144.5 385.5q0 111 -47 205q-102 94 -197.5 134t-232.5 40q-188 0 -322.5 -132t-134.5 -318.5z " />
<glyph unicode="&#xf1;" d="M205 10v942l10 11h21l10 -11v-164q70 94 173 149.5t216 55.5q410 0 409 -491v-492l-10 -10h-20l-10 10v482q0 233 -89.5 346.5t-279.5 113.5q-115 0 -221.5 -64.5t-167.5 -170.5v-707l-10 -10h-21zM266 1116q78 143 195 144q70 0 167 -56.5t150 -56.5t90 24.5t84 88.5 l11 -11q-78 -143 -195 -143q-70 0 -167 56.5t-150.5 56.5t-90 -25t-84.5 -88z" />
<glyph unicode="&#xf2;" d="M123 481q0 215 142.5 363.5t349 148.5t349 -148.5t142.5 -363.5t-142.5 -363.5t-349 -148.5t-349 148.5t-142.5 363.5zM168 481.5q0 -198.5 130 -335t316.5 -136.5t316.5 136.5t130 335t-130 334.5t-316.5 136t-316.5 -136t-130 -334.5zM369 1362l8 10h33l20 -10 l297 -297l-10 -10h-21l-20 10z" />
<glyph unicode="&#xf3;" d="M123 481q0 215 142.5 363.5t349 148.5t349 -148.5t142.5 -363.5t-142.5 -363.5t-349 -148.5t-349 148.5t-142.5 363.5zM168 481.5q0 -198.5 130 -335t316.5 -136.5t316.5 136.5t130 335t-130 334.5t-316.5 136t-316.5 -136t-130 -334.5zM502 1065l297 297l20 10h33l8 -10 l-307 -297l-21 -10h-20z" />
<glyph unicode="&#xf4;" d="M123 481q0 215 142.5 363.5t349 148.5t349 -148.5t142.5 -363.5t-142.5 -363.5t-349 -148.5t-349 148.5t-142.5 363.5zM168 481.5q0 -198.5 130 -335t316.5 -136.5t316.5 136.5t130 335t-130 334.5t-316.5 136t-316.5 -136t-130 -334.5zM338 1065l246 297l20 10h21 l20 -10l246 -297l-10 -10h-21l-20 10l-226 276l-225 -276l-20 -10h-21z" />
<glyph unicode="&#xf5;" d="M123 481q0 215 142.5 363.5t349 148.5t349 -148.5t142.5 -363.5t-142.5 -363.5t-349 -148.5t-349 148.5t-142.5 363.5zM168 481.5q0 -198.5 130 -335t316.5 -136.5t316.5 136.5t130 335t-130 334.5t-316.5 136t-316.5 -136t-130 -334.5zM266 1116q78 143 195 144 q70 0 167 -56.5t150 -56.5t90 24.5t84 88.5l11 -11q-78 -143 -195 -143q-70 0 -167 56.5t-150.5 56.5t-90 -25t-84.5 -88z" />
<glyph unicode="&#xf6;" d="M123 481q0 215 142.5 363.5t349 148.5t349 -148.5t142.5 -363.5t-142.5 -363.5t-349 -148.5t-349 148.5t-142.5 363.5zM168 481.5q0 -198.5 130 -335t316.5 -136.5t316.5 136.5t130 335t-130 334.5t-316.5 136t-316.5 -136t-130 -334.5zM328 1219v20l51 51h20l52 -51v-20 l-52 -52h-20zM778 1219v20l51 51h21l51 -51v-20l-51 -52h-21z" />
<glyph unicode="&#xf7;" horiz-adv-x="1146" d="M174 737v21l10 10h779l10 -10v-21l-10 -10h-779zM522 430v21l41 41h21l41 -41v-21l-41 -41h-21zM522 1044v21l41 41h21l41 -41v-21l-41 -40h-21z" />
<glyph unicode="&#xf8;" d="M92 0l150 143q-119 145 -119 338q0 215 142.5 363.5t348.5 148.5q205 0 349 -149l143 139h10l21 -20v-11l-146 -141q115 -141 115 -330q0 -215 -142.5 -363.5t-349.5 -148.5q-205 0 -344 144l-147 -144h-10l-21 21v10zM168 481q0 -176 104 -307l660 639 q-133 139 -318 139q-186 0 -316 -136t-130 -335zM301 143q129 -133 313 -133q186 0 316.5 136.5t130.5 334.5q0 168 -100 299z" />
<glyph unicode="&#xf9;" d="M184 461v491l11 11h20l10 -11v-481q0 -233 89 -347t280 -114q115 0 221.5 64.5t167.5 171.5v706l10 11h21l10 -11v-942l-10 -10h-21l-10 10v164q-70 -94 -173 -149.5t-216 -55.5q-410 0 -410 492zM369 1362l8 10h33l20 -10l297 -297l-10 -10h-21l-20 10z" />
<glyph unicode="&#xfa;" d="M184 461v491l11 11h20l10 -11v-481q0 -233 89 -347t280 -114q115 0 221.5 64.5t167.5 171.5v706l10 11h21l10 -11v-942l-10 -10h-21l-10 10v164q-70 -94 -173 -149.5t-216 -55.5q-410 0 -410 492zM502 1065l297 297l20 10h33l8 -10l-307 -297l-21 -10h-20z" />
<glyph unicode="&#xfb;" d="M184 461v491l11 11h20l10 -11v-481q0 -233 89 -347t280 -114q115 0 221.5 64.5t167.5 171.5v706l10 11h21l10 -11v-942l-10 -10h-21l-10 10v164q-70 -94 -173 -149.5t-216 -55.5q-410 0 -410 492zM338 1065l246 297l20 10h21l20 -10l246 -297l-10 -10h-21l-20 10 l-226 276l-225 -276l-20 -10h-21z" />
<glyph unicode="&#xfc;" d="M184 461v491l11 11h20l10 -11v-481q0 -233 89 -347t280 -114q115 0 221.5 64.5t167.5 171.5v706l10 11h21l10 -11v-942l-10 -10h-21l-10 10v164q-70 -94 -173 -149.5t-216 -55.5q-410 0 -410 492zM328 1219v20l51 51h20l52 -51v-20l-52 -52h-20zM778 1219v20l51 51h21 l51 -51v-20l-51 -52h-21z" />
<glyph unicode="&#xfd;" horiz-adv-x="1024" d="M61 -461l11 10q78 0 132 52.5t124 173.5l164 338l-431 839l11 11h20l21 -11l409 -788l389 788l21 11h20l11 -11l-594 -1198q-68 -129 -132.5 -187.5t-164.5 -58.5l-11 15v16zM410 1065l297 297l20 10h33l8 -10l-307 -297l-21 -10h-20z" />
<glyph unicode="&#xfe;" horiz-adv-x="1269" d="M205 -461v1884l10 11h21l10 -11v-635q154 205 409 205q207 0 349.5 -148.5t142.5 -363.5t-142.5 -363.5t-349.5 -148.5q-256 0 -409 205v-635l-10 -10h-21zM246 246q61 -109 170.5 -172.5t238.5 -63.5q186 0 316.5 136.5t130.5 335t-130 334.5t-317 136 q-129 0 -238.5 -63.5t-170.5 -171.5v-471z" />
<glyph unicode="&#xff;" horiz-adv-x="1024" d="M61 -461l11 10q78 0 132 52.5t124 173.5l164 338l-431 839l11 11h20l21 -11l409 -788l389 788l21 11h20l11 -11l-594 -1198q-68 -129 -132.5 -187.5t-164.5 -58.5l-11 15v16zM236 1219v20l51 51h20l51 -51v-20l-51 -52h-20zM686 1219v20l51 51h21l51 -51v-20l-51 -52h-21 z" />
<glyph unicode="&#x152;" horiz-adv-x="2293" d="M143 717q0 309 222.5 528t535.5 219q123 0 215 -30h901l11 -11v-20l-11 -10h-792q172 -76 286.5 -234t141.5 -350h200l11 -10v-21l-11 -10h-194q1 -17 0 -34q0 -221 -100 -394q-109 -186 -334 -299h854l10 -10v-21l-10 -10h-963q-92 -31 -215 -31q-313 0 -535.5 219.5 t-222.5 528.5zM188 717q0 -291 210 -499t503 -208t503 208t210 499t-210 498.5t-503 207.5t-503 -207.5t-210 -498.5z" />
<glyph unicode="&#x153;" horiz-adv-x="2068" d="M123 481q0 215 142.5 363.5t348.5 148.5q166 0 295 -100t176 -258q39 160 159 259t292 99q139 0 236.5 -73.5t135.5 -170t38 -196.5q0 -29 -11 -51l-20 -10h-805q0 -199 137 -340.5t330 -141.5q188 0 338 133l10 -10v-31q-51 -51 -149.5 -92t-198.5 -41 q-172 0 -308 105.5t-184 263.5q-47 -164 -174 -266.5t-297 -102.5q-207 0 -349 148.5t-142 363.5zM168 481.5q0 -198.5 130 -335t316.5 -136.5t316.5 136.5t130 335t-130 334.5t-316.5 136t-316.5 -136t-130 -334.5zM1110 532h795q-8 188 -105.5 304t-263.5 116 q-186 0 -298 -118t-128 -302z" />
<glyph unicode="&#x178;" d="M61 1423l11 11h20l21 -11l501 -635l504 635l19 11h20l10 -11l-532 -675v-738l-10 -10h-21l-10 10v738zM307 1638v21l62 61h20l62 -61v-21l-62 -61h-20zM778 1638v21l62 61h20l62 -61v-21l-62 -61h-20z" />
<glyph unicode="&#x2c6;" d="M338 1065l246 297l20 10h21l20 -10l246 -297l-10 -10h-21l-20 10l-226 276l-225 -276l-20 -10h-21z" />
<glyph unicode="&#x2dc;" d="M266 1116q78 143 195 144q70 0 167 -56.5t150 -56.5t90 24.5t84 88.5l11 -11q-78 -143 -195 -143q-70 0 -167 56.5t-150.5 56.5t-90 -25t-84.5 -88z" />
<glyph unicode="&#x2013;" horiz-adv-x="1024" d="M82 471v21l10 10h840l10 -10v-21l-10 -10h-840z" />
<glyph unicode="&#x2014;" horiz-adv-x="2048" d="M82 471v21l10 10h1864l10 -10v-21l-10 -10h-1864z" />
<glyph unicode="&#x2018;" horiz-adv-x="532" d="M205 1034v113q0 147 46 217t148 70v-11q-154 -35 -153 -266v-123l-10 -10h-21z" />
<glyph unicode="&#x2019;" horiz-adv-x="532" d="M133 1024v10q154 35 154 266v123l10 11h20l11 -11v-112q0 -147 -46.5 -217t-148.5 -70z" />
<glyph unicode="&#x201a;" horiz-adv-x="532" d="M174 -276q154 35 154 266v123l10 10h20l11 -10v-113q0 -147 -46.5 -217t-148.5 -70v11z" />
<glyph unicode="&#x201c;" horiz-adv-x="819" d="M205 1034v113q0 147 46 217t148 70v-11q-154 -35 -153 -266v-123l-10 -10h-21zM492 1096v51q0 147 46 217t148 70v-11q-154 -35 -154 -266v-61l-10 -11h-20z" />
<glyph unicode="&#x201d;" horiz-adv-x="819" d="M133 1024v10q154 35 154 266v123l10 11h20l11 -11v-112q0 -147 -46.5 -217t-148.5 -70zM420 1085v11q154 35 153 266v61l11 11h20l10 -11v-51q0 -147 -46 -217t-148 -70z" />
<glyph unicode="&#x201e;" horiz-adv-x="819" d="M174 -276q154 35 154 266v123l10 10h20l11 -10v-113q0 -147 -46.5 -217t-148.5 -70v11zM461 -215q154 35 153 266v62l11 10h20l10 -10v-52q0 -147 -46 -216.5t-148 -69.5v10z" />
<glyph unicode="&#x2022;" horiz-adv-x="1024" d="M174 471v21l328 327h20l328 -327v-21l-328 -328h-20z" />
<glyph unicode="&#x2026;" horiz-adv-x="2048" d="M266 10v62l10 10h62l10 -10v-62l-10 -10h-62zM948 10v62l10 10h62l10 -10v-62l-10 -10h-62zM1630 10v62l10 10h62l10 -10v-62l-10 -10h-62z" />
<glyph unicode="&#x2039;" horiz-adv-x="614" d="M82 471v21l399 399l11 -10v-31l-369 -369l369 -368v-31l-11 -10z" />
<glyph unicode="&#x203a;" horiz-adv-x="614" d="M123 82v31l369 368l-369 369v31l10 10l399 -399v-21l-399 -399z" />
<glyph unicode="&#x20ac;" horiz-adv-x="1617" d="M72 553l10 20l20 11h115q-12 63 -12 133q0 63 8 112h-131l-10 11l10 20l20 10h119q55 256 262 425t480 169q279 0 491 -153v-41l-10 -10q-209 164 -481 163q-250 0 -447 -157.5t-250 -395.5h973l10 -10v-20l-10 -11h-981q-8 -49 -8 -112q0 -70 12 -133h813l10 -11v-20 l-10 -10h-805q61 -231 254 -382t439 -151q272 0 481 164l10 -10v-41q-213 -154 -491 -154q-266 0 -471 163t-267 411h-143z" />
<glyph unicode="&#x2122;" horiz-adv-x="1925" d="M102 1403v20l11 11h716l11 -11v-20l-11 -10h-337v-727l-11 -11h-20l-10 11v727h-338zM983 666v757l10 11h21l20 -11l318 -430l317 430l21 11h20l10 -11v-757l-10 -11h-20l-11 11v696l-317 -420h-21l-317 420v-696l-10 -11h-21z" />
<glyph unicode="&#xe000;" horiz-adv-x="965" d="M0 965h965v-965h-965v965z" />
<glyph unicode="&#xfb01;" horiz-adv-x="1187" d="M82 932v22l10 9h154v143q0 158 81 258t216 100q72 0 153 -41v-30l-10 -11q-82 41 -143 41q-121 0 -188.5 -89t-67.5 -238v-133h399l10 -11v-20l-10 -10h-399v-912l-11 -10h-20l-10 10v912h-154zM901 1219v20l51 51h21l51 -51v-20l-51 -52h-21zM942 10v942l10 11h21 l10 -11v-942l-10 -10h-21z" />
<glyph unicode="&#xfb02;" horiz-adv-x="1351" d="M82 932v22l10 9h154v143q0 158 81 258t216 100q72 0 153 -41v-30l-10 -11q-82 41 -143 41q-121 0 -188.5 -89t-67.5 -238v-133h399l10 -11v-20l-10 -10h-399v-912l-11 -10h-20l-10 10v912h-154zM922 266v1157l10 11h20l11 -11v-1147q0 -266 163 -266q80 0 154 62l10 -11 v-30q-82 -61 -164 -62q-204 0 -204 297z" />
<glyph unicode="&#xfb03;" horiz-adv-x="1925" d="M82 932v22l10 9h154v143q0 158 81 258t216 100q72 0 153 -41v-30l-10 -11q-82 41 -143 41q-121 0 -188.5 -89t-67.5 -238v-133h399l10 -11v-20l-10 -10h-399v-912l-11 -10h-20l-10 10v912h-154zM819 932v22l10 9h154v143q0 158 81 258t216 100q72 0 154 -41v-30l-11 -11 q-82 41 -143 41q-121 0 -188.5 -89t-67.5 -238v-133h399l11 -11v-20l-11 -10h-399v-912l-10 -10h-21l-10 10v912h-154zM1638 1219v20l52 51h20l51 -51v-20l-51 -52h-20zM1679 10v942l11 11h20l10 -11v-942l-10 -10h-20z" />
<glyph unicode="&#xfb04;" horiz-adv-x="2088" d="M82 932v22l10 9h154v143q0 158 81 258t216 100q72 0 153 -41v-30l-10 -11q-82 41 -143 41q-121 0 -188.5 -89t-67.5 -238v-133h399l10 -11v-20l-10 -10h-399v-912l-11 -10h-20l-10 10v912h-154zM819 932v22l10 9h154v143q0 158 81 258t216 100q72 0 154 -41v-30l-11 -11 q-82 41 -143 41q-121 0 -188.5 -89t-67.5 -238v-133h399l11 -11v-20l-11 -10h-399v-912l-10 -10h-21l-10 10v912h-154zM1659 266v1157l10 11h21l10 -11v-1147q0 -266 164 -266q80 0 153 62l11 -11v-30q-82 -61 -164 -62q-205 0 -205 297z" />
<glyph horiz-adv-x="0" />
</font>
</defs>
</svg>
